# xmcd CD database file
#
# Track frame offsets:
#	150
#	17307
#	34142
#	51745
#	70905
#	109937
#	137030
#	156095
#	175735
#	196287
#	214917
#	242242
#
# Disc length: 3752 seconds
#
# Revision: 1
# Processed by: cddbd v1.5.1PL0 Copyright (c) Steve Scherf et al.
# Submitted via: CDex 1.51
#
DISCID=ac0ea60c
DTITLE=Bobby Knight and Great Bone Players - Great American Trombone Co.
DYEAR=1996
DGENRE=Jazz
TTITLE0=Rebel Rouser
TTITLE1=Li'l Bit
TTITLE2=I Got Rhythm
TTITLE3=When I Fall in love
TTITLE4=Rock Bottom
TTITLE5=Stardust
TTITLE6=Strike up the Band
TTITLE7=Here's That Rainy Day
TTITLE8=Receurdos
TTITLE9=Life's Too Long
TTITLE10=Lover Man
TTITLE11=Star Wars
EXTD=YEAR: 1996
EXTT0=
EXTT1=
EXTT2=
EXTT3=
EXTT4=
EXTT5=
EXTT6=
EXTT7=
EXTT8=
EXTT9=
EXTT10=
EXTT11=
PLAYORDER=
